<?xml version="1.0" standalone="no"?>
<!DOCTYPE svg PUBLIC "-//W3C//DTD SVG 20010904//EN"
 "http://www.w3.org/TR/2001/REC-SVG-20010904/DTD/svg10.dtd">
<svg version="1.0" xmlns="http://www.w3.org/2000/svg"
 width="512.000000pt" height="512.000000pt" viewBox="0 0 512.000000 512.000000"
 preserveAspectRatio="xMidYMid meet">

<g transform="translate(0.000000,512.000000) scale(0.100000,-0.100000)"
fill="#000000" stroke="none">
<path d="M3529 5106 c-20 -7 -52 -22 -70 -34 -19 -12 -556 -544 -1195 -1184
-805 -806 -1167 -1175 -1180 -1203 -10 -23 -20 -71 -22 -111 -7 -133 -93 -38
1226 -1356 1136 -1135 1189 -1187 1241 -1203 72 -23 153 -16 220 21 62 33 259
233 286 289 11 22 21 70 23 108 8 132 78 53 -1012 1144 l-981 983 981 982
c937 938 983 985 999 1037 22 69 16 160 -15 221 -13 26 -73 95 -139 161 -97
97 -125 119 -174 137 -65 25 -134 27 -188 8z"/>
</g>
</svg>
