<?xml version="1.0" standalone="no"?>
<!DOCTYPE svg PUBLIC "-//W3C//DTD SVG 20010904//EN"
 "http://www.w3.org/TR/2001/REC-SVG-20010904/DTD/svg10.dtd">
<svg version="1.0" xmlns="http://www.w3.org/2000/svg"
 width="512.000000pt" height="512.000000pt" viewBox="0 0 512.000000 512.000000"
 preserveAspectRatio="xMidYMid meet">

<g transform="translate(0.000000,512.000000) scale(0.100000,-0.100000)"
fill="#000000" stroke="none">
<path d="M3905 5048 c-92 -10 -345 -60 -422 -84 -45 -13 -60 -24 -97 -72 -62
-81 -128 -185 -170 -271 -21 -40 -40 -71 -42 -68 -3 3 2 54 12 114 10 61 15
117 11 126 -3 9 -18 24 -33 33 -25 17 -29 17 -78 0 -138 -48 -509 -252 -701
-384 -132 -92 -155 -112 -180 -161 -41 -82 -95 -250 -121 -380 -14 -69 -27
-127 -28 -129 -4 -3 -22 117 -31 203 -8 71 -33 105 -78 105 -38 0 -100 -54
-355 -305 -179 -175 -197 -196 -232 -270 -50 -105 -95 -248 -119 -380 -10 -58
-21 -108 -24 -111 -2 -3 -10 29 -16 71 -13 91 -23 113 -56 121 -51 13 -72 -4
-178 -139 -248 -315 -515 -706 -599 -877 -150 -307 -205 -551 -195 -863 7
-213 41 -348 125 -486 l38 -63 -44 -110 c-55 -141 -111 -343 -118 -433 -9
-103 -11 -102 243 -130 311 -35 495 -45 818 -45 371 0 701 26 943 76 154 31
253 101 287 204 25 76 16 134 -40 237 -54 100 -60 155 -25 228 29 60 108 129
178 155 129 49 160 51 847 60 741 9 900 20 1155 81 290 68 430 258 349 474
-27 72 -112 165 -193 209 -73 41 -208 84 -286 93 -53 5 -58 4 -78 -22 -25 -31
-27 -44 -11 -79 13 -28 32 -37 147 -66 186 -46 292 -138 292 -252 0 -111 -106
-183 -333 -227 -229 -44 -363 -52 -1047 -61 -703 -9 -746 -12 -885 -65 -166
-62 -275 -184 -304 -338 -17 -91 -3 -141 83 -302 23 -44 20 -70 -14 -109 -39
-44 -87 -62 -224 -86 -261 -44 -423 -55 -836 -55 -378 0 -515 7 -800 38 l-105
12 3 35 c5 49 64 240 104 335 l34 80 124 6 c426 21 919 179 1346 430 174 102
387 253 606 431 136 109 149 133 106 183 -20 23 -34 27 -118 36 -137 13 -219
30 -194 40 10 4 35 8 55 8 67 2 283 43 401 77 204 58 234 76 391 232 147 146
311 324 445 485 68 80 82 103 82 131 0 55 -31 72 -142 79 -94 6 -195 24 -278
50 l-45 14 35 6 c19 4 87 14 150 23 215 30 475 93 522 128 42 31 308 456 437
698 90 170 211 439 211 469 0 53 -27 70 -131 84 -83 11 -91 13 -68 23 15 6 64
16 110 22 134 18 155 26 172 63 8 17 37 102 65 187 99 310 98 335 -11 369 -84
25 -189 47 -297 60 -100 13 -431 12 -545 -1z m515 -148 c47 -6 122 -18 168
-27 l83 -16 -6 -29 c-4 -16 -26 -88 -49 -161 l-42 -132 -93 -17 c-126 -23
-237 -61 -351 -119 -129 -66 -170 -101 -170 -144 0 -24 7 -39 25 -53 24 -19
37 -20 198 -15 94 3 189 1 209 -4 l38 -8 -99 -200 c-113 -227 -219 -413 -363
-631 l-99 -151 -92 -26 c-176 -50 -469 -94 -751 -113 -86 -6 -103 -10 -123
-30 -32 -32 -30 -70 6 -103 70 -65 316 -165 488 -197 49 -9 90 -18 92 -20 6
-6 -198 -233 -358 -397 -170 -174 -175 -177 -356 -232 -193 -58 -328 -77 -614
-82 -230 -5 -255 -7 -272 -24 -26 -26 -24 -75 4 -102 57 -57 302 -160 451
-190 l70 -13 -100 -77 c-472 -366 -900 -573 -1388 -672 -131 -27 -361 -53
-372 -42 -9 9 149 310 258 491 448 746 1027 1358 1713 1811 228 150 451 273
625 345 90 37 112 80 68 135 -33 42 -78 31 -279 -68 -997 -490 -1897 -1410
-2464 -2519 -33 -65 -62 -118 -65 -118 -12 0 -60 142 -75 226 -25 130 -16 389
18 534 45 189 124 383 222 545 101 167 479 695 497 695 4 0 8 -7 8 -16 0 -30
68 -221 104 -292 36 -72 48 -82 95 -82 55 0 65 26 73 193 11 253 54 477 120
635 37 89 100 165 284 341 l128 122 23 -103 c28 -125 73 -259 119 -350 37 -73
62 -89 113 -72 39 14 51 49 51 149 0 230 57 528 132 696 l30 67 166 110 c203
133 494 295 505 281 2 -2 -1 -51 -6 -109 -14 -138 4 -353 31 -390 21 -28 69
-38 100 -21 11 6 32 47 52 103 73 204 180 418 274 545 35 48 54 64 83 72 62
18 293 61 373 70 109 12 392 13 490 1z"/>
</g>
</svg>
